<svg version="1.1" id="Layer_1" xmlns="http://www.w3.org/2000/svg" xmlns:xlink="http://www.w3.org/1999/xlink" x="0px" y="0px"
	 width="222.406px" height="88.594px" viewBox="0 0 222.406 88.594" enable-background="new 0 0 222.406 88.594"
	 xml:space="preserve">
<g id="logo">
	<g id="logo-icon">
		<path fill="#ED932E" d="M63.388,11.535c-14.054-14.054-36.84-14.054-50.895,0s-14.054,36.84,0,50.895L37.94,87.876l25.447-25.447C77.442,48.375,77.442,25.589,63.388,11.535z"/>
		<circle fill="#C54C27" cx="37.941" cy="36.983" r="25.423"/>
		<circle fill="#751E45" cx="37.941" cy="36.983" r="16.597"/>
		<circle fill="#3C2549" cx="37.941" cy="36.983" r="8.997"/>
	</g>
	<g id="logo-text">
		<path fill="#ED932E" d="M94.824,24.119v23.053c0,3.345-2.708,6.108-6.108,6.108h-4.463c-0.903,0-1.699-0.743-1.699-1.699V19.656
			c0-0.903,0.795-1.699,1.699-1.699h4.463C92.116,17.957,94.824,20.719,94.824,24.119z M91.425,24.119
			c0-1.541-1.221-2.762-2.708-2.762h-2.762v28.523h2.762c1.487,0,2.708-1.221,2.708-2.708V24.119z"/>
		<path fill="#ED932E" d="M111.183,31.184c0,1.752-0.691,3.291-1.858,4.406c1.167,1.117,1.858,2.71,1.858,4.463V52.43
			c0,0.478-0.372,0.849-0.849,0.849h-1.701c-0.478,0-0.849-0.372-0.849-0.849V40.053c0-1.541-1.221-2.762-2.71-2.762h-2.708V52.43
			c0,0.478-0.426,0.849-0.849,0.849h-1.701c-0.478,0-0.849-0.372-0.849-0.849V19.656c0-0.903,0.743-1.699,1.699-1.699h4.409
			c3.399,0,6.11,2.762,6.11,6.162v7.065H111.183z M107.784,24.119c0-1.541-1.221-2.762-2.71-2.762h-2.708v12.535h2.708
			c1.489,0,2.71-1.221,2.71-2.708V24.119z"/>
		<path fill="#ED932E" d="M127.859,24.119v23.053c0,3.399-2.762,6.108-6.108,6.108c-3.399,0-6.162-2.708-6.162-6.108V24.119
			c0-3.399,2.762-6.162,6.162-6.162C125.097,17.957,127.859,20.719,127.859,24.119z M124.46,24.119c0-1.541-1.221-2.762-2.708-2.762
			c-1.541,0-2.762,1.221-2.762,2.762v23.053c0,1.487,1.221,2.708,2.762,2.708c1.487,0,2.708-1.221,2.708-2.708V24.119z"/>
		<path fill="#ED932E" d="M144.485,24.119v7.065c0,3.397-2.762,6.108-6.11,6.108h-2.762V52.43c0,0.478-0.372,0.849-0.795,0.849
			h-1.701c-0.478,0-0.849-0.372-0.849-0.849v-15.14v-3.399V18.859c0-0.052,0-0.052,0-0.052c0-0.426,0.372-0.849,0.849-0.849h5.258
			C141.723,17.957,144.485,20.719,144.485,24.119z M141.085,24.119c0-1.541-1.223-2.762-2.71-2.762h-2.762v12.535h2.762
			c1.487,0,2.71-1.221,2.71-2.708V24.119z"/>
		<path fill="#ED932E" d="M156.648,50.729v1.701c0,0.478-0.372,0.849-0.851,0.849h-6.268c-0.955,0-1.699-0.743-1.699-1.699V18.806
			c0-0.426,0.372-0.849,0.849-0.849h1.701c0.424,0,0.849,0.424,0.849,0.849v31.073h4.566
			C156.276,49.88,156.648,50.305,156.648,50.729z"/>
		<path fill="#ED932E" d="M163.923,52.43c0,0.478-0.372,0.849-0.849,0.849h-1.701c-0.478,0-0.849-0.372-0.849-0.849V18.859
			c0-0.052,0-0.052,0-0.052c0-0.426,0.372-0.849,0.849-0.849h1.701c0.478,0,0.849,0.424,0.849,0.849V52.43z"/>
		<path fill="#ED932E" d="M171.731,21.356v12.589h4.621c0.478,0,0.849,0.372,0.849,0.849v1.699c0,0.426-0.372,0.851-0.849,0.851
			h-4.621v15.085c0,0.478-0.372,0.849-0.849,0.849h-1.701c-0.478,0-0.849-0.372-0.849-0.849V19.655c0-0.903,0.795-1.699,1.699-1.699
			h6.321c0.478,0,0.849,0.424,0.849,0.849v1.699c0,0.478-0.372,0.851-0.849,0.851L171.731,21.356L171.731,21.356z"/>
		<path fill="#ED932E" d="M190.959,18.807v1.699c0,0.478-0.374,0.851-0.851,0.851h-2.39v31.073c0,0.478-0.372,0.849-0.849,0.849
			h-1.699c-0.48,0-0.851-0.372-0.851-0.849V21.356h-2.39c-0.478,0-0.849-0.374-0.849-0.851v-1.699c0-0.426,0.372-0.849,0.849-0.849
			h8.18C190.585,17.957,190.959,18.381,190.959,18.807z"/>
		<path fill="#ED932E" d="M198.234,21.356v12.589h4.621c0.478,0,0.849,0.372,0.849,0.849v1.699c0,0.426-0.372,0.851-0.849,0.851
			h-4.621V49.88h4.621c0.478,0,0.849,0.426,0.849,0.849v1.701c0,0.478-0.372,0.849-0.849,0.849h-6.321
			c-0.955,0-1.699-0.743-1.699-1.699V19.656c0-0.903,0.743-1.699,1.699-1.699h6.321c0.478,0,0.849,0.424,0.849,0.849v1.699
			c0,0.478-0.372,0.851-0.849,0.851C202.855,21.356,198.234,21.356,198.234,21.356z"/>
		<path fill="#ED932E" d="M220.063,31.184c0,1.752-0.691,3.291-1.858,4.406c1.167,1.117,1.858,2.71,1.858,4.463V52.43
			c0,0.478-0.372,0.849-0.849,0.849h-1.701c-0.478,0-0.849-0.372-0.849-0.849V40.053c0-1.541-1.221-2.762-2.71-2.762h-2.708V52.43
			c0,0.478-0.426,0.849-0.849,0.849h-1.701c-0.478,0-0.849-0.372-0.849-0.849V19.656c0-0.903,0.743-1.699,1.699-1.699h4.409
			c3.399,0,6.11,2.762,6.11,6.162v7.065H220.063z M216.664,24.119c0-1.541-1.221-2.762-2.71-2.762h-2.708v12.535h2.708
			c1.489,0,2.71-1.221,2.71-2.708V24.119z"/>
	</g>
</g>
</svg>
